<svg id="Layer_1" data-name="Layer 1" xmlns="http://www.w3.org/2000/svg" viewBox="0 0 4402.76 1664.78"><defs><style>.cls-1{fill:#fff;}</style></defs><title>Untitled-1</title><g id="_91iwet.tif" data-name="91iwet.tif"><path class="cls-1" d="M4369,653c-.87,3.8-2.25,7.57-2.52,11.42-4.51,64-23,123.5-59.57,176.5-43.11,62.4-102.29,102.66-175.18,123.17-44.7,12.58-90.33,15.8-136.45,13.92-53.43-2.17-104.89-13-152.9-37.27-67.21-34-114.63-86.73-144.59-155.35-15.55-35.62-24.32-73.06-28.38-111.68a523.74,523.74,0,0,1-1.71-95.68c5.42-70.06,25.27-135.18,67.25-192.37,42.61-58.07,100-94.61,169.07-113.56,42.06-11.54,85-15.14,128.47-14.14,39.5.91,78.19,6.64,115.7,19,90,29.76,153.21,88.66,190.33,175.73C4353.1,487,4361.4,522.83,4366,559.63c.57,4.6.06,9.33.57,14,.43,3.88,1.62,7.69,2.47,11.52ZM4189.73,612.3c-.49-8.15-1-22.12-2.24-36-2.88-31.66-9.39-62.49-23.78-91.13-20.2-40.2-50.74-68.8-94.55-81.72-27.94-8.23-56.52-9.07-85-4.06-49.88,8.78-86.27,36.43-109.8,81.08-15.61,29.64-22.36,61.75-25.63,94.71a429.25,429.25,0,0,0,1.89,100.55c4.2,30.87,12,60.67,28,87.78,21.6,36.75,52.8,61.16,94.51,71.25,24.51,5.94,49.33,6.36,74.31,2.89,29.81-4.14,56.27-15.48,78.91-35.42,22.87-20.14,37.4-45.63,47.18-74.06C4185.77,692.5,4189.36,655.55,4189.73,612.3Z"/><path class="cls-1" d="M3657.66,970h-11c-52.31,0-104.62-.19-156.92.19-8.21.07-12.31-2.38-15.53-10-17.83-42.29-36.39-84.26-54.23-126.55-3.05-7.23-6.66-9.91-14.69-9.89q-146.43.45-292.86,0c-8.49,0-12.28,3-15.4,10.37-17.78,41.94-36,83.71-54.06,125.53-1.43,3.33-3,6.59-4.62,10h-181.5c1.46-3.63,2.51-6.63,3.85-9.5q93.64-200.74,187.34-401.47Q3113.27,419,3178.5,279.26c7.27-15.53,4.41-12.89,20.68-12.94q58-.19,115.94,0c14.84,0,12.45-2.5,19.25,12q62.25,132.81,124.35,265.7,96.89,207,193.79,413.88C3654.16,961.41,3655.56,965.05,3657.66,970ZM3356.5,687c-1.84-4.83-3-8.2-4.39-11.46q-16.26-38.09-32.59-76.13-27.73-64.62-55.57-129.22c-1.34-3.11-1.67-7.16-6.9-8.73C3225,536.31,3192.63,610.86,3160.34,687Z"/><path class="cls-1" d="M2968.78,266.7,2648.67,969.63H2504.08L2183.8,266.28h11.74c55.32,0,110.64.21,165.95-.23,8.51-.07,12.19,3,15.37,10.36q96.61,225.12,193.67,450.05c2.08,4.82,4.36,9.55,7.56,16.55,2.56-4.83,4.35-7.73,5.7-10.82q27.83-64.07,55.56-128.18,71.15-164.38,142.18-328.81c2.44-5.66,4.87-9.14,12.12-9.1,56,.33,112,.18,167.94.19C2963.22,266.29,2964.85,266.47,2968.78,266.7Z"/><path class="cls-1" d="M913.59,1211.12c-.89-148.87,119.76-283.19,283.65-283.1,160.57.09,284,130.2,283.48,284.5-.55,155-125.51,283-284.35,282.57C1033.52,1494.62,912.34,1361,913.59,1211.12Zm133.55,115.94.93,2.49c3.19.28,6.38.8,9.56.8q94.45.08,188.9,0c9.85,0,9.92-.13,13.63-9.63q17.56-45.07,35-90.19,24-61.85,48-123.69c1.45-3.76,2.2-7.79,3.47-12.39-22.53,0-43.45-.21-64.37.13-6.41.1-12.09,3-16.87,7.65-16.67,16.28-34,31.94-50.16,48.68q-76.73,79.35-152.79,159.35C1057.21,1315.74,1052.24,1321.46,1047.14,1327.06Z"/><path class="cls-1" d="M1333.07,870.58,1288,856.27a86.89,86.89,0,0,1,1.16-8.89c9.66-41,15.52-82.5,15.69-124.51.12-28.55-1.95-57.19-4.6-85.64-4.7-50.28-17-98.93-35.38-145.94q-81.58-209.13-278.28-317.91c-56.32-31.19-116.47-52.2-179.76-63.76C766.14,102.19,725,98.2,683.63,99.55c-156.11,5.06-292.17,59.7-406.14,166.77-92,86.39-150.69,192-177.6,315.17C87.59,637.77,84.59,694.71,88.7,752.2c5,69.73,20.73,136.84,49.58,200.41q108.89,240,357.17,330.13a552.86,552.86,0,0,0,122.07,28.63c29.14,3.53,58.3,6.05,87.63,5.3,42-1.07,83.61-5.51,124.61-15,1.27-.3,2.59-.36,4.83-.65q7,22.82,13.85,45.48c-18.08,12.21-146.84,22.69-194.21,18.91-178.87-14.28-329.73-86-449.61-219.34C-14,902.85-21,529.33,197.8,277.33S786.68-23.11,1060.64,160.21C1346,351.18,1390.05,674.15,1333.07,870.58Z"/><path class="cls-1" d="M1959.65,266.28H2129c1.66,0,3.33.09,5,0,4.62-.25,6.82,1.84,6.63,6.5-.09,2.33,0,4.66,0,7V969.26H1959.88c-.32-4.61-.91-9.11-.91-13.6q-.09-104.86,0-209.71,0-231.69,0-463.36C1959,277.68,1959.36,272.77,1959.65,266.28Z"/><path class="cls-1" d="M357.93,780.2c-5-.65-9.76-1.49-14.6-1.85-6.54-.49-13.16,1-19.56-2.44-1.83-1-5.66.67-8,2-9.94,5.72-14,5.61-21.41-3.19a45.93,45.93,0,0,1-8-14.68c-2-6-5.4-8.87-11.57-8.84-3.33,0-6.66-.07-10-.08q-54-.18-108-.38c-10.77,0-12-1.3-14.06-12.37,10.5-.89,21-1.8,31.48-2.67q48.24-4,96.48-7.89c4.32-.34,8.66-.3,13-.5,5.39-.26,10.34-1.34,14.78-5,6.55-5.41,14-6.25,21.18-1.25,4.62,3.2,9.43,2.76,14.38,2q55.13-8.82,110.24-17.71a22.23,22.23,0,0,0,12.89-6.76c9.21-9.35,19.29-11,30.75-4.85,4.9,2.62,9.72,2.53,14.52,1.59,35.87-7.05,71.89-13.44,106.88-24.29,7.28-2.25,14.31-5.36,21.37-8.28,5-2.1,7.58-5.75,7.67-11.6.22-14,1.35-27.93,1.46-41.9.25-33.3,5.41-65.69,18.8-96.28a162.89,162.89,0,0,1,19.12-32.55c11.88-15.7,20.73-15.25,33.41.12,11.18,13.55,18.24,29.32,23.9,45.77,10.18,29.6,13.28,60.3,14,91.36.23,10.32.72,20.63.67,31,0,8.15,3.77,13.27,11.23,15.68,15.8,5.11,31.46,10.9,47.56,14.78,25.18,6.08,50.67,10.93,76.07,16,5.85,1.18,11.65,1.38,17.35-2.13,9.07-5.59,19.28-4.18,25.85,2.78,8.6,9.12,19.19,9.78,29.81,11.55,32.12,5.36,64.28,10.41,96.43,15.61,5.33.86,10.41,1.3,15.34-2.05,7.34-5,14.3-3.13,21.32,1.51A27.05,27.05,0,0,0,1102.4,727c19.87,1.86,39.8,3.06,59.7,4.67,20.22,1.63,40.42,3.55,60.65,5.17,7.61.61,15.27.76,22.89,1.11-1.19,11-2.92,12.78-13.71,12.83q-54.48.27-109,.38c-3,0-6,.08-9,.09-6,0-9.94,2.36-11.48,8.73a32.68,32.68,0,0,1-12.43,18.78c-4.8,3.62-9.54,4.79-14.55.87-4.75-3.71-8.93-5.5-15.31-2.13-4,2.09-9.79.47-14.76.85s-9.64,1.15-13.7,1.66c-7.91-1.19-15.28-2.79-22.72-3.28-9.63-.64-19.32-.44-29-.51-6.6,0-13.82-1.9-17.15,7.81-9.07-10.29-17.88-13.32-27.58-4.49-4.63-1.66-5.12-5.2-5.15-8.95,0-4,.23-8-.06-12-.58-7.84-4.46-9.55-11.18-5.15-.55.36-1,.88-1.56,1.24a24.26,24.26,0,0,1-2.27,1.09c-7.78-8.42-18.46-6.7-28.56-7-2.19-.07-4.44,1.43-6.66,2.2,0,.89,0,1.78,0,2.67,2.22.7,4.39,1.74,6.66,2,8.14,1.07,9.68,2.23,10.38,10.29a95.33,95.33,0,0,1,.09,15.94c-.67,8.17-3,10.44-10.92,11.72a43.27,43.27,0,0,1-5,.43c-21,.78-41.93,1.47-62.89,2.35-16.3.67-32.59,1.61-48.89,2.35-3.89.18-7.79,0-12.65,0-.37-8-.68-14.77-1-21.32-10.57-3.17-12.18-2.23-12.62,7.26-.26,5.65-.36,11.32-.11,17,.28,6.51,2.58,8.93,9.06,9.61,14.21,1.49,28.48,2.53,42.67,4.22,27.93,3.3,55.83,6.92,83.84,12a18.79,18.79,0,0,1-3.25.62c-32.3.71-64.59,1.66-96.89,1.91-15.3.12-30.63-.88-45.91-1.88-7.24-.47-12.73,1.44-17.61,7-3.7,4.18-8.37,7.57-12.89,10.95-5.13,3.84-10.73,3.63-15.75-.14a94.33,94.33,0,0,1-13.52-11.76c-4.21-4.65-8.82-6.25-15-6-20,.92-39.94,2.06-59.91,2-28.31-.15-56.6-1.31-84.9-2.08-.82,0-1.62-.56-2.45-2.06,11-1.49,22-3.08,33-4.43q37.11-4.56,74.26-8.9c5.61-.65,11.26-.85,16.9-1.26,8.49-.62,11.16-3.22,11.37-11.77a130.79,130.79,0,0,0-.44-16c-.81-8.54-2.56-9.35-12.93-6v19.85c-3.38.59-5.91,1.5-8.4,1.39-25.94-1.12-51.87-2.43-77.81-3.65-14-.65-28-.94-41.91-1.94-10.54-.77-11.71-2.21-13.25-12.4a41.19,41.19,0,0,1-.43-8.94c.94-13.1,1.09-13.11,14.1-16.56,1.28-.34,3.06-2,3.08-3s-1.77-3.32-2.76-3.32c-10.77,0-22.14-2.52-31.34,6.45a9.06,9.06,0,0,1-2.55-.83c-2.91-2-5.37-5.49-9.6-3-3.93,2.34-2.9,6.34-3,9.9-.26,6.12,1.39,12.7-3.32,17.19-5.7-1.55-10.74-4.23-15.53-3.83-4.38.36-8.48,4.06-13.38,6.66-2.64-1.47-6-4.32-9.88-5.25-4.08-1-8.61-.21-12.94-.15-9.33.14-18.68,0-28,.61C369.91,777.26,364.21,779,357.93,780.2Z"/><path class="cls-1" d="M3137.68,1485.66c-8,0-15.68.62-23.14-.3-3-.37-6-3.74-8.13-6.45-11.65-15-23-30.19-34.47-45.31q-49.5-65.25-99-130.5c-2.13-2.79-4.48-5.42-6.72-8.13l-2.27.55c-.28,3.75-.79,7.5-.79,11.26q-.07,82.38,0,164.77V1485h-31.89a90.09,90.09,0,0,1-1-9.44q-.09-116.34,0-232.68c0-2.92.45-5.85.8-10.11,8.38,0,16.3-.64,24,.33,2.88.36,5.74,4.12,7.87,6.9q37,48.42,73.7,97,29.57,39,59.15,78c2.31,3,4.85,5.89,8.64,10.46,2.38-12.78,1.11-23.3,1.34-33.71s.05-20.64.05-31V1233.37H3137C3139,1240.93,3139.7,1469.15,3137.68,1485.66Z"/><path class="cls-1" d="M2669.32,1485.73c-11.52,0-22.43-.06-33.33,0-4.76,0-5.91-3.76-7.58-6.87-8.8-16.41-17.5-32.88-26.24-49.33-4.05-7.64-8.29-15.18-12.13-22.93-8.12-16.43-21.52-25.26-39.5-26.29-14.6-.83-29.29-.27-43.94-.2-1.55,0-3.09.86-5.69,1.63V1485h-34.19V1233.57a67.71,67.71,0,0,1,8.39-1q54,0,107.91.2a95.11,95.11,0,0,1,36.92,7.4c23.21,9.76,36.07,27.21,39.2,52.24,1.35,10.72,1.41,21.29-1,31.72-5.57,23.56-20.31,39.13-42.84,47.47-5.24,1.94-10.68,3.33-17.12,5.31,2.32,1.78,3.67,3.17,5.31,4a51.42,51.42,0,0,1,21.88,21.28c14.52,26.18,28.71,52.54,43,78.86C2668.87,1482.12,2668.86,1483.51,2669.32,1485.73ZM2502.15,1260.5c-2.56,12.19-2,84.25.85,92.27h10.4c16.32,0,32.65.21,49-.08a192.37,192.37,0,0,0,26.83-1.94c17.76-2.86,31.76-11.54,35.34-30.3,1.81-9.54,1.33-19.9-.11-29.59-1.77-11.95-9.63-20.13-20.88-24.85-10.62-4.45-21.79-5.93-33.15-6-19.66-.17-39.31-.08-59,0C2508.49,1259.94,2505.55,1260.28,2502.15,1260.5Z"/><path class="cls-1" d="M3448.63,1381.35v103.42c-11.49,2-22.31.85-32.92.79-2.42-7.58-3-240.18-.6-252.35,3-.22,6.21-.67,9.43-.68q49.5,0,99,0c13.73,0,27.2,1.37,40.22,6.15,26.51,9.73,41.19,28.57,43,56.68.63,9.54.6,19.47-1.36,28.76-5,23.73-20.14,39.16-42.71,47.46-5.2,1.91-10.59,3.34-18.6,5.84,3,1.52,4.12,2.17,5.33,2.73,12.77,5.86,20.74,16.31,27.2,28.25q18.75,34.69,37.56,69.36c1.07,2,1.84,4.14,3.35,7.57a236.16,236.16,0,0,1-35.21-.06c-2.33-.19-4.92-4-6.39-6.71-8.93-16.36-17.56-32.87-26.3-49.33-4.06-7.64-8.32-15.18-12.18-22.93-8.39-16.86-22.39-25.23-40.7-26.13-14-.68-28-.18-42-.11C3453.2,1380.09,3451.62,1380.71,3448.63,1381.35Zm.28-28.58h12.19c16.32,0,32.65.22,49-.08a233.81,233.81,0,0,0,26.84-1.91c19.47-2.63,32.78-14.07,35.78-32.34,1.48-9,.74-18.57-.66-27.63-1.85-12-9.73-20-20.91-24.82-10-4.26-20.5-5.78-31.16-5.94-20.64-.31-41.29-.15-61.94-.09-2.88,0-5.75.57-9.1.93Z"/><path class="cls-1" d="M4221.93,1485.64c-11.2,0-21.1.42-30.91-.31-2.26-.17-5-3.91-6.22-6.59-6.85-15.15-13.64-30.35-19.75-45.81-2.85-7.22-6.68-10-14.75-9.85-37.32.49-74.64.41-112,.05-7.17-.07-10.76,2.4-13.35,8.88-5.8,14.51-12.25,28.76-18.47,43.1-1.45,3.33-3.05,6.6-4.71,10.17H3968a78.15,78.15,0,0,1,2.53-8q52.56-118.07,105.07-236.14c2.86-6.47,6.36-9,13.43-8.81,25.35.85,18.75-3.78,28.84,18.69q50.07,111.51,99.58,223.29C4218.86,1477.61,4220.06,1481,4221.93,1485.64Zm-125.66-212.85c-7.55,8.92-52.36,113.54-52.58,121.2,12.9,2.14,96,1.43,104-1.26Z"/><path class="cls-1" d="M2287.4,1232.59c7.65,0,15.93.12,24.21,0,5.24-.11,6.5,3.75,8.13,7.39q11.21,25.07,22.41,50.11,41.05,92.06,82.06,184.11c1.46,3.26,2.59,6.67,4.24,10.95h-34.14c-6.08-13.95-12.06-28-18.3-41.91-11-24.58-3.93-19.54-29.81-19.82-33.65-.35-67.31.13-101-.25-7.14-.08-10.77,2.26-13.38,8.8-5.91,14.82-13.09,29.15-18.67,44.08-3,8.07-7.6,10.58-15.67,9.93-7.23-.58-14.56-.12-21.94-.12C2176.65,1477.83,2278.74,1246.85,2287.4,1232.59Zm66,161.85c-2.06-10.79-46.5-114.09-51.53-120.48-5.49,6.44-50.82,111.46-51.81,120.48Z"/><path class="cls-1" d="M3364.38,1458.51v25.33c-7.7,2.45-150.67,2.92-161.53.69-2.14-7.43-2.73-238.19-.64-250,7-2.52,149.3-3.2,161.83-.59v25.36c-3.91.2-7.77.55-11.62.55q-49.46.07-98.92,0c-2.33,0-4.67,0-7,0-11.29.11-11.49.25-11.53,12q-.07,29.46,0,58.91c0,3.56.49,7.12.83,11.78,20.6.79,40.47.28,60.33.37,19.62.09,39.25,0,59.72,0,2.82,9.47,2.06,18.39.64,28.36H3236.37c-.55,3.64-1.32,6.44-1.34,9.24q-.15,33.95,0,67.88c.05,9.31.8,10,10.54,10q53,.1,105.91,0Z"/><path class="cls-1" d="M2024.91,1383.68c-.42,5.28-1,9.5-1,13.71-.1,24.95,0,49.89-.08,74.84,0,3.93-.35,7.86-.58,12.62-11.08,1.73-21.52,1-33,.56-.39-4.06-1-7.57-1-11.08q-.09-115.24,0-230.48c0-3.24.46-6.47.75-10.19,3.22-.44,5.77-1.1,8.32-1.1,34.62,0,69.24-.08,103.86.29a98.39,98.39,0,0,1,22.65,3c32.88,8.21,51.38,31.12,53.73,65.85a84.82,84.82,0,0,1-4.62,35.36c-9.86,26.75-30.42,40.22-57.64,44.6-25.79,4.15-51.82,1.29-77.73,2C2034.28,1383.78,2030,1383.68,2024.91,1383.68Zm-1-29.15c3.55.64,5.47,1.3,7.39,1.28,23.92-.25,47.93.52,71.74-1.26,22.9-1.71,39.44-14.24,41.39-40.31a74.15,74.15,0,0,0-1.47-21.7c-3.38-14.76-12.89-24.66-27.55-28.61a107.07,107.07,0,0,0-24.48-3.81c-18.93-.56-37.89-.23-56.84-.17-2.88,0-5.77.48-10.1.87C2023.68,1292.21,2023.78,1322.94,2023.93,1354.53Z"/><path class="cls-1" d="M3858,1441.52c2.71-5.78,4.33-9,5.76-12.3,26.78-62,53.72-123.84,80.08-186,3.61-8.51,8.13-11.81,17.11-10.88,6.88.71,13.9.14,22.58.14-1.43,4.08-2.26,7.07-3.5,9.87q-46.11,104.49-92.29,209c-3.76,8.52-8,16.88-11.13,25.61-2.6,7.15-6.89,9.66-14.28,9-6.57-.58-13.22-.12-20.2-.12-37-84-73.67-167.37-110.84-251.82,3.25-.6,5.65-1.35,8.07-1.43,6-.18,12,.25,18-.15,6.86-.46,10.66,1.81,13.5,8.62,13.68,32.84,28,65.41,42.11,98.07q19.77,45.8,39.57,91.57C3853.81,1433.62,3855.42,1436.42,3858,1441.52Z"/><path class="cls-1" d="M2770.78,1261.35h-85v-26.68c7.52-2.6,193.21-3.34,206.56-.8,2.14,8.46,1.22,17.19.41,27.4-14.48.39-28.39.14-42.28.19s-27.91,0-43.09,0c-.25,5-.63,9.17-.63,13.35q-.06,98.88,0,197.75v12.49h-34.49c-.22-4.52-.6-8.72-.6-12.93q-.06-97.87-.06-195.75C2771.55,1271.82,2771.1,1267.27,2770.78,1261.35Z"/></g></svg>